<?xml version="1.0" encoding="UTF-8" standalone="no"?>
<!DOCTYPE svg PUBLIC "-//W3C//DTD SVG 1.1//EN" "http://www.w3.org/Graphics/SVG/1.1/DTD/svg11.dtd">
<svg width="100%" height="100%" viewBox="0 0 29414 3875" version="1.1" xmlns="http://www.w3.org/2000/svg" xmlns:xlink="http://www.w3.org/1999/xlink" xml:space="preserve" xmlns:serif="http://www.serif.com/" style="fill-rule:evenodd;clip-rule:evenodd;stroke-linejoin:round;stroke-miterlimit:2;">
    <g id="Artboard1" transform="matrix(28.2997,0,0,5.96443,0,0)">
        <rect x="0" y="0" width="1039.37" height="649.606" style="fill:none;"/>
        <g transform="matrix(0.0793757,0,0,0.376617,-51.8181,-1059.61)">
            <g transform="matrix(13.1672,0,0,13.1672,8299.56,2945.55)">
                <path d="M0,4.054C-3.344,4.054 -6.706,4.247 -10.084,4.637C-13.462,5.024 -16.789,5.599 -20.066,6.36C-23.343,7.12 -26.535,8.048 -29.642,9.146C-32.75,10.244 -35.723,11.485 -38.561,12.87C-39.541,13.343 -40.436,13.58 -41.247,13.58C-42.057,13.58 -42.716,13.36 -43.223,12.921C-43.729,12.482 -44.168,11.959 -44.54,11.35L-48.594,4.358C-44.81,1.892 -40.959,-0.22 -37.04,-1.976C-33.122,-3.733 -29.145,-5.168 -25.108,-6.283C-21.071,-7.398 -16.958,-8.218 -12.769,-8.741C-8.581,-9.265 -4.324,-9.526 0,-9.526C4.324,-9.526 8.581,-9.265 12.769,-8.741C16.958,-8.218 21.071,-7.398 25.108,-6.283C29.144,-5.168 33.122,-3.733 37.041,-1.976C40.959,-0.22 44.827,1.892 48.645,4.358L44.591,11.35C44.219,11.924 43.78,12.431 43.274,12.87C42.767,13.309 42.124,13.529 41.348,13.529C40.976,13.529 40.571,13.47 40.132,13.352C39.692,13.233 39.203,13.039 38.662,12.769C35.858,11.35 32.894,10.1 29.77,9.02C26.645,7.938 23.436,7.026 20.142,6.283C16.848,5.54 13.504,4.982 10.109,4.611C6.714,4.239 3.344,4.054 0,4.054" style="fill:rgb(100,110,106);fill-rule:nonzero;"/>
            </g>
            <g transform="matrix(13.1672,0,0,13.1672,6757.9,3810.16)">
                <path d="M0,14.435L0,38.144L15.545,38.144C18.462,38.144 20.846,37.775 22.697,37.034C24.548,36.294 25.996,35.336 27.041,34.16C28.086,32.984 28.804,31.657 29.196,30.176C29.588,28.696 29.784,27.194 29.784,25.669C29.784,23.928 29.555,22.361 29.098,20.966C28.641,19.573 27.857,18.398 26.747,17.439C25.637,16.482 24.167,15.741 22.338,15.219C20.509,14.696 18.201,14.435 15.414,14.435L0,14.435ZM0,-0.326L11.496,-0.326C13.934,-0.326 16.133,-0.5 18.092,-0.849C20.052,-1.197 21.717,-1.806 23.089,-2.678C24.461,-3.548 25.506,-4.745 26.224,-6.27C26.942,-7.794 27.302,-9.71 27.302,-12.018C27.302,-14.282 27.018,-16.165 26.453,-17.667C25.887,-19.17 25.016,-20.378 23.84,-21.293C22.665,-22.207 21.173,-22.86 19.366,-23.252C17.559,-23.644 15.414,-23.84 12.933,-23.84L0,-23.84L0,-0.326ZM-22.077,54.8L-22.077,-40.365L12.933,-40.365C19.507,-40.365 25.103,-39.754 29.719,-38.536C34.334,-37.316 38.101,-35.597 41.018,-33.376C43.935,-31.155 46.057,-28.455 47.386,-25.277C48.714,-22.098 49.379,-18.549 49.379,-14.631C49.379,-12.496 49.073,-10.439 48.464,-8.458C47.854,-6.476 46.897,-4.615 45.59,-2.874C44.284,-1.132 42.607,0.447 40.561,1.862C38.514,3.277 36.054,4.507 33.18,5.552C39.451,7.077 44.088,9.547 47.092,12.965C50.097,16.384 51.599,20.77 51.599,26.126C51.599,30.176 50.815,33.943 49.248,37.426C47.68,40.91 45.383,43.947 42.357,46.537C39.33,49.128 35.597,51.153 31.156,52.612C26.714,54.071 21.641,54.8 15.937,54.8L-22.077,54.8Z" style="fill:rgb(241,103,52);fill-rule:nonzero;"/>
            </g>
            <g transform="matrix(13.1672,0,0,13.1672,9497.9,3942.61)">
                <path d="M0,-5.683L8.883,-5.683C11.888,-5.683 14.445,-6.064 16.558,-6.826C18.669,-7.587 20.4,-8.643 21.75,-9.994C23.099,-11.343 24.079,-12.922 24.689,-14.729C25.299,-16.536 25.603,-18.485 25.603,-20.575C25.603,-24.755 24.242,-28.021 21.521,-30.372C18.799,-32.724 14.587,-33.899 8.883,-33.899L0,-33.899L0,-5.683ZM0,9.535L0,44.741L-22.077,44.741L-22.077,-50.424L8.883,-50.424C15.763,-50.424 21.63,-49.716 26.485,-48.301C31.34,-46.886 35.303,-44.915 38.373,-42.39C41.443,-39.864 43.673,-36.881 45.068,-33.442C46.461,-30.002 47.158,-26.257 47.158,-22.208C47.158,-19.115 46.744,-16.199 45.917,-13.456C45.089,-10.712 43.86,-8.175 42.227,-5.846C40.594,-3.516 38.59,-1.438 36.217,0.392C33.844,2.22 31.112,3.722 28.021,4.898C29.5,5.639 30.883,6.553 32.168,7.641C33.452,8.73 34.573,10.058 35.532,11.626L55.779,44.741L35.793,44.741C32.091,44.741 29.435,43.347 27.824,40.561L12.018,12.932C11.321,11.714 10.505,10.842 9.569,10.319C8.632,9.797 7.316,9.535 5.617,9.535L0,9.535Z" style="fill:rgb(241,103,52);fill-rule:nonzero;"/>
            </g>
            <g transform="matrix(13.1672,0,0,13.1672,10813.7,3942.61)">
                <path d="M0,-5.683L8.883,-5.683C11.887,-5.683 14.445,-6.064 16.558,-6.826C18.669,-7.587 20.4,-8.643 21.75,-9.994C23.099,-11.343 24.079,-12.922 24.689,-14.729C25.299,-16.536 25.603,-18.485 25.603,-20.575C25.603,-24.755 24.242,-28.021 21.521,-30.372C18.799,-32.724 14.587,-33.899 8.883,-33.899L0,-33.899L0,-5.683ZM0,9.535L0,44.741L-22.077,44.741L-22.077,-50.424L8.883,-50.424C15.763,-50.424 21.63,-49.716 26.485,-48.301C31.34,-46.886 35.303,-44.915 38.373,-42.39C41.443,-39.864 43.673,-36.881 45.068,-33.442C46.461,-30.002 47.158,-26.257 47.158,-22.208C47.158,-19.115 46.744,-16.199 45.917,-13.456C45.089,-10.712 43.859,-8.175 42.227,-5.846C40.594,-3.516 38.59,-1.438 36.217,0.392C33.844,2.22 31.112,3.722 28.021,4.898C29.5,5.639 30.883,6.553 32.168,7.641C33.452,8.73 34.573,10.058 35.532,11.626L55.779,44.741L35.793,44.741C32.091,44.741 29.435,43.347 27.824,40.561L12.018,12.932C11.321,11.714 10.505,10.842 9.569,10.319C8.632,9.797 7.316,9.535 5.617,9.535L0,9.535Z" style="fill:rgb(241,103,52);fill-rule:nonzero;"/>
            </g>
            <g transform="matrix(13.1672,0,0,13.1672,12645.5,4531.72)">
                <path d="M0,-95.165L0,-78.183L-39.059,-78.183L-39.059,-55.976L-9.144,-55.976L-9.144,-39.647L-39.059,-39.647L-39.059,-16.983L0,-16.983L0,0L-61.266,0L-61.266,-95.165L0,-95.165Z" style="fill:rgb(241,103,52);fill-rule:nonzero;"/>
            </g>
            <g transform="matrix(13.1672,0,0,13.1672,13273.3,3510.87)">
                <path d="M0,59.895L35.27,59.895L35.27,77.53L-22.077,77.53L-22.077,-17.635L0,-17.635L0,59.895Z" style="fill:rgb(241,103,52);fill-rule:nonzero;"/>
            </g>
            <g transform="matrix(13.1672,0,0,13.1672,1357.15,4365.91)">
                <path d="M0,-69.953C-0.392,-69.212 -0.958,-68.843 -1.698,-68.843C-2.267,-68.843 -2.998,-69.245 -3.893,-70.051C-4.789,-70.856 -6.002,-71.749 -7.531,-72.729C-9.059,-73.709 -10.971,-74.612 -13.264,-75.439C-15.557,-76.266 -18.385,-76.681 -21.749,-76.681C-25.113,-76.681 -28.072,-76.201 -30.628,-75.244C-33.183,-74.286 -35.324,-72.979 -37.05,-71.325C-38.776,-69.669 -40.086,-67.754 -40.981,-65.577C-41.877,-63.399 -42.324,-61.113 -42.324,-58.719C-42.324,-55.584 -41.66,-52.993 -40.33,-50.946C-39,-48.899 -37.245,-47.158 -35.064,-45.721C-32.884,-44.284 -30.409,-43.076 -27.641,-42.096C-24.872,-41.116 -22.027,-40.147 -19.105,-39.189C-16.184,-38.231 -13.339,-37.175 -10.57,-36.022C-7.801,-34.868 -5.326,-33.419 -3.146,-31.678C-0.967,-29.936 0.789,-27.792 2.12,-25.245C3.449,-22.697 4.115,-19.53 4.115,-15.741C4.115,-11.865 3.45,-8.219 2.123,-4.801C0.794,-1.382 -1.133,1.59 -3.658,4.115C-6.184,6.64 -9.275,8.632 -12.932,10.091C-16.59,11.549 -20.77,12.279 -25.473,12.279C-31.57,12.279 -36.816,11.201 -41.214,9.046C-45.613,6.891 -49.466,3.941 -52.775,0.196L-50.946,-2.678C-50.424,-3.331 -49.814,-3.658 -49.117,-3.658C-48.725,-3.658 -48.223,-3.397 -47.613,-2.874C-47.003,-2.351 -46.262,-1.709 -45.389,-0.947C-44.518,-0.185 -43.47,0.643 -42.25,1.535C-41.029,2.428 -39.612,3.255 -37.998,4.017C-36.386,4.779 -34.532,5.421 -32.439,5.943C-30.346,6.466 -27.969,6.727 -25.31,6.727C-21.647,6.727 -18.376,6.172 -15.498,5.062C-12.62,3.951 -10.189,2.439 -8.205,0.522C-6.221,-1.393 -4.707,-3.668 -3.66,-6.303C-2.614,-8.937 -2.09,-11.757 -2.09,-14.762C-2.09,-18.027 -2.755,-20.715 -4.085,-22.828C-5.416,-24.939 -7.171,-26.703 -9.351,-28.119C-11.531,-29.533 -14.006,-30.72 -16.775,-31.678C-19.543,-32.636 -22.389,-33.572 -25.31,-34.487C-28.231,-35.401 -31.077,-36.424 -33.846,-37.557C-36.614,-38.688 -39.089,-40.137 -41.269,-41.9C-43.45,-43.663 -45.205,-45.862 -46.535,-48.497C-47.865,-51.131 -48.529,-54.43 -48.529,-58.392C-48.529,-61.483 -47.941,-64.467 -46.764,-67.34C-45.586,-70.214 -43.865,-72.75 -41.597,-74.95C-39.329,-77.148 -36.528,-78.911 -33.191,-80.24C-29.856,-81.568 -26.052,-82.232 -21.778,-82.232C-16.982,-82.232 -12.676,-81.47 -8.86,-79.946C-5.046,-78.422 -1.57,-76.093 1.568,-72.957L0,-69.953Z" style="fill:rgb(100,110,106);fill-rule:nonzero;"/>
            </g>
            <g transform="matrix(13.1672,0,0,13.1672,2273.91,3599.63)">
                <path d="M0,46.439C0.261,45.743 0.533,45.057 0.816,44.382C1.099,43.707 1.415,43.065 1.764,42.455L38.079,-21.75C38.427,-22.315 38.775,-22.665 39.124,-22.795C39.472,-22.926 39.951,-22.991 40.561,-22.991L45.198,-22.991L45.198,69.43L39.32,69.43L39.32,-9.34C39.32,-10.472 39.385,-11.669 39.516,-12.933L3.135,51.665C2.525,52.797 1.654,53.363 0.523,53.363L-0.522,53.363C-1.611,53.363 -2.482,52.797 -3.135,51.665L-40.496,-12.998C-40.365,-11.734 -40.3,-10.516 -40.3,-9.34L-40.3,69.43L-46.113,69.43L-46.113,-22.991L-41.541,-22.991C-40.931,-22.991 -40.441,-22.926 -40.071,-22.795C-39.701,-22.665 -39.342,-22.315 -38.993,-21.75L-1.698,42.52C-1.045,43.74 -0.479,45.046 0,46.439" style="fill:rgb(100,110,106);fill-rule:nonzero;"/>
            </g>
            <g transform="matrix(13.1672,0,0,13.1672,3331.73,3738.95)">
                <path d="M0,25.277L41.41,25.277L22.534,-21.423C22.229,-22.163 21.924,-23.001 21.62,-23.938C21.314,-24.874 21.009,-25.865 20.705,-26.91C20.4,-25.865 20.095,-24.874 19.791,-23.938C19.486,-23.001 19.18,-22.142 18.876,-21.358L0,25.277ZM61.854,58.849L56.694,58.849C56.083,58.849 55.583,58.686 55.192,58.36C54.8,58.033 54.495,57.608 54.277,57.086L43.37,30.241L-2.025,30.241L-12.867,57.086C-13.042,57.566 -13.347,57.979 -13.781,58.327C-14.217,58.676 -14.74,58.849 -15.349,58.849L-20.444,58.849L17.374,-33.572L24.036,-33.572L61.854,58.849Z" style="fill:rgb(100,110,106);fill-rule:nonzero;"/>
            </g>
            <g transform="matrix(13.1672,0,0,13.1672,4452.31,3912.68)">
                <path d="M0,-1.11L16.068,-1.11C20.16,-1.11 23.829,-1.6 27.073,-2.58C30.317,-3.56 33.06,-4.964 35.303,-6.793C37.545,-8.622 39.255,-10.82 40.43,-13.389C41.606,-15.958 42.194,-18.854 42.194,-22.076C42.194,-28.651 40.038,-33.528 35.728,-36.707C31.417,-39.885 25.146,-41.475 16.917,-41.475L0,-41.475L0,-1.11ZM0,3.854L0,45.656L-6.662,45.656L-6.662,-46.766L16.917,-46.766C27.584,-46.766 35.553,-44.708 40.822,-40.593C46.09,-36.479 48.725,-30.437 48.725,-22.468C48.725,-18.942 48.115,-15.718 46.896,-12.802C45.677,-9.884 43.925,-7.325 41.639,-5.127C39.353,-2.928 36.598,-1.12 33.376,0.294C30.153,1.709 26.518,2.635 22.469,3.07C23.513,3.723 24.449,4.595 25.277,5.682L57.086,45.656L51.273,45.656C50.575,45.656 49.977,45.525 49.476,45.264C48.975,45.002 48.485,44.568 48.007,43.957L18.419,6.466C17.678,5.509 16.884,4.833 16.035,4.442C15.186,4.05 13.868,3.854 12.083,3.854L0,3.854Z" style="fill:rgb(100,110,106);fill-rule:nonzero;"/>
            </g>
            <g transform="matrix(13.1672,0,0,13.1672,6180.1,4513.83)">
                <path d="M0,-92.421L0,-86.738L-32.462,-86.738L-32.462,0L-39.124,0L-39.124,-86.738L-71.781,-86.738L-71.781,-92.421L0,-92.421Z" style="fill:rgb(100,110,106);fill-rule:nonzero;"/>
            </g>
            <g transform="matrix(-13.1672,0,0,13.1672,7906.73,4004.24)">
                <path d="M-59.719,-19.059L0,-19.059L5.893,0L-65.612,0L-59.719,-19.059Z" style="fill:rgb(241,103,52);fill-rule:nonzero;"/>
            </g>
            <g transform="matrix(13.1672,0,0,13.1672,8628.08,3278.67)">
                <path d="M0,20.081L-4.887,4.273L-4.904,4.273C-4.904,4.273 -6.661,0 -11.161,0L-38.703,0C-43.203,0 -44.96,4.273 -44.96,4.273L-49.848,20.081L0,20.081Z" style="fill:rgb(241,103,52);fill-rule:nonzero;"/>
            </g>
            <g transform="matrix(-3.88927,12.5797,12.5797,3.88927,8590.57,3910.92)">
                <path d="M44.498,-53.154L65.783,-53.154L37.346,38.825L19.775,26.812L44.498,-53.154Z" style="fill:rgb(241,103,52);fill-rule:nonzero;"/>
            </g>
        </g>
    </g>
</svg>
